<svg version="1.1" id="Layer_1" xmlns="http://www.w3.org/2000/svg" xmlns:xlink="http://www.w3.org/1999/xlink" x="0px" y="0px" viewBox="0 0 40 43.2" style="enable-background:new 0 0 40 43.2;" xml:space="preserve">
 <style type="text/css">
  .st0{fill:#00609F;}
	.st1{clip-path:url(#SVGID_3_);fill:#FFFFFF;}
 </style>
 <g>
  <g>
   <polyline id="SVGID_1_" class="st0" points="0,0.2 39.6,0.2 39.6,43.1 0,43.1 0,0.2 		">
   </polyline>
  </g>
  <g>
   <defs>
    <polyline id="SVGID_2_" points="0,0.2 39.6,0.2 39.6,43.1 0,43.1 0,0.2 			">
    </polyline>
   </defs>
   <clipPath id="SVGID_3_">
    <use href="#SVGID_2_" style="overflow:visible;">
    </use>
   </clipPath>
   <path class="st1" d="M130.8,32.2c-2-2.1-4-4-6.2-5.9c1.7-1.5,3.4-3.1,5-4.7c0.4,0.4,0.8,0.7,1.2,1.1c-0.4-0.4-0.8-0.8-1.1-1.2
			c0.2-0.2,0.3-0.3,0.5-0.5c-0.2,0.1-0.3,0.3-0.5,0.4c-1.6-1.6-3.3-3.2-5-4.7c1.9-1.7,3.7-3.4,5.5-5.2c-1.8,1.7-3.8,3.4-5.8,4.9
			c-1.8-1.5-3.6-3-5.5-4.4c4-3,7.8-6.3,11.3-10c-3.7,3.5-7.7,6.6-12,9.4C102.9,0.6,84.6-5.9,64.7-5.9c-19.8,0-38.2,6.5-53.3,17.5
			C7,8.7,2.8,5.4-1,1.8C2.6,5.6,6.5,9,10.6,12.1c-1.9,1.4-3.7,2.9-5.5,4.4C3,14.9,1,13.1-1,11.3c1.9,1.9,3.8,3.8,5.8,5.6
			c-1.7,1.5-3.4,3.1-5,4.7c-0.3-0.3-0.6-0.5-0.8-0.8c0.3,0.3,0.5,0.5,0.8,0.8c-0.2,0.2-0.5,0.5-0.8,0.8c0.3-0.3,0.6-0.5,0.9-0.8
			c1.6,1.6,3.3,3.2,5,4.7c-2,1.8-4,3.6-5.8,5.5c2-1.8,4-3.6,6.2-5.2c1.8,1.6,3.6,3.1,5.5,4.5C6.6,34.2,2.6,37.6-1,41.4
			c3.8-3.6,8-6.8,12.5-9.7c15.1,11,33.4,17.5,53.2,17.5s38.2-6.5,53.2-17.5c4.6,3,8.9,6.4,12.8,10.1c-3.7-3.9-7.8-7.4-12-10.6
			c1.9-1.4,3.7-2.9,5.5-4.5C126.5,28.4,128.7,30.2,130.8,32.2z M129.5,21.5c-1.7,1.6-3.5,3-5.3,4.5c-1.8-1.5-3.6-3-5.5-4.4
			c1.9-1.4,3.7-2.9,5.5-4.5C126.1,18.5,127.8,20,129.5,21.5z M123.9,16.8c-1.9,1.5-3.9,2.9-5.9,4.2c-2-1.5-4.1-2.9-6.2-4.2
			c2.1-1.3,4.2-2.7,6.3-4.2C120,14,122,15.4,123.9,16.8z M64.7,13.1c-12.8,0-24.9,2.7-36,7.5c-2.8-1.1-5.6-2.4-8.3-3.7
			C33.7,10.2,48.7,6.5,64.7,6.5s31,3.8,44.2,10.4c-2.7,1.4-5.4,2.6-8.2,3.7C89.6,15.8,77.5,13.1,64.7,13.1z M97.9,21.7
			c-10.3,3.7-21.5,5.7-33.2,5.7s-22.8-2-33.1-5.7C41.9,18,53.1,16,64.8,16C76.4,16,87.6,18,97.9,21.7z M26.5,21.7
			c-2.5,1.2-5,2.5-7.4,3.9c-2.3-1.2-4.6-2.6-6.8-4c2.2-1.4,4.4-2.7,6.7-3.9C21.4,19.1,23.9,20.5,26.5,21.7z M28.8,22.7
			c11.1,4.8,23.2,7.5,35.9,7.5s24.9-2.7,35.9-7.5c2.8,1.1,5.6,2.3,8.2,3.7c-13.1,6.7-28.2,10.5-44.2,10.5s-31-3.8-44.1-10.5
			C23.2,25.1,26,23.8,28.8,22.7z M103,21.7c2.5-1.2,5-2.5,7.5-4c2.3,1.2,4.6,2.5,6.7,3.9c-2.2,1.4-4.4,2.7-6.8,4
			C108,24.2,105.5,22.8,103,21.7z M64.7-3c19.4,0,37.5,5.6,52.5,15.2c-2.2,1.4-4.4,2.7-6.8,4C96.9,8.1,81.3,3.6,64.7,3.6
			S32.5,8.2,19,16.1c-2.3-1.2-4.6-2.6-6.8-4C27.2,2.6,45.3-3,64.7-3z M11.4,12.7c2,1.5,4.1,2.9,6.3,4.2c-2.1,1.3-4.2,2.7-6.2,4.2
			c-2-1.3-4-2.7-5.9-4.2C7.4,15.4,9.4,14,11.4,12.7z M-0.1,21.6c1.7-1.5,3.4-3,5.2-4.4c1.8,1.6,3.6,3.1,5.5,4.5
			c-1.9,1.4-3.7,2.9-5.5,4.4C3.4,24.6,1.6,23.1-0.1,21.6z M5.6,26.3c1.9-1.5,3.9-2.8,5.9-4.2c2,1.5,4.1,2.9,6.3,4.2
			c-2.1,1.3-4.2,2.7-6.2,4.2C9.4,29.2,7.5,27.8,5.6,26.3z M64.7,46.3c-19.4,0-37.5-5.6-52.4-15.2c2.2-1.4,4.4-2.7,6.7-3.9
			c13.5,8,29,12.5,45.6,12.5s32.2-4.6,45.7-12.5c2.3,1.2,4.6,2.5,6.7,3.9C102.2,40.7,84.2,46.3,64.7,46.3z M118,30.5
			c-2-1.5-4.1-2.9-6.3-4.2c2.1-1.3,4.2-2.7,6.3-4.2c2,1.3,4,2.7,5.9,4.2C122,27.8,120,29.2,118,30.5z">
   </path>
  </g>
 </g>
</svg>